<svg width="24" height="26" viewBox="0 0 24 26" fill="none" xmlns="http://www.w3.org/2000/svg">
<path d="M14.5382 16.8325C14.3749 15.9557 14.0482 15.1585 13.5581 14.5208L14.4565 13.0061L13.3131 11.8901L11.7613 12.767C11.0262 12.2887 10.2094 11.9698 9.39267 11.8104L8.98429 10.0566H7.35078L6.94241 11.8104C6.04398 11.9698 5.22722 12.2887 4.49215 12.767L2.94031 11.8104L1.79686 12.9264L2.69529 14.441C2.20524 15.1585 1.87853 15.9557 1.71518 16.7528L0 17.2311V18.8255L1.79686 19.2241C1.96021 20.1009 2.28691 20.8981 2.77696 21.5359L1.87853 23.0505L3.02199 24.1665L4.57382 23.2896C5.3089 23.7679 6.12565 24.0868 6.94241 24.2462L7.35078 26H8.98429L9.39267 24.2462C10.2911 24.0868 11.1079 23.7679 11.7613 23.2896L13.3131 24.1665L14.4565 23.0505L13.5581 21.5359C14.0482 20.8184 14.3749 20.0212 14.5382 19.2241L16.3351 18.8255V17.2311L14.5382 16.8325ZM8.16754 22.0142C5.88063 22.0142 4.08377 20.2604 4.08377 18.0283C4.08377 15.7962 5.88063 14.0425 8.16754 14.0425C10.4544 14.0425 12.2513 15.7962 12.2513 18.0283C12.2513 20.2604 10.4544 22.0142 8.16754 22.0142Z" fill="#FDFDFD"/>
<path d="M23.0325 11.4976C22.9445 11.0255 22.7686 10.5962 22.5047 10.2528L22.9885 9.43726L22.3728 8.83632L21.5372 9.30849C21.1414 9.05094 20.7016 8.87924 20.2618 8.7934L20.0419 7.84906H19.1623L18.9424 8.7934C18.4586 8.87924 18.0188 9.05094 17.623 9.30849L16.7874 8.7934L16.1717 9.39434L16.6555 10.2099C16.3916 10.5962 16.2157 11.0255 16.1277 11.4547L15.2042 11.7123V12.5708L16.1717 12.7854C16.2597 13.2575 16.4356 13.6868 16.6995 14.0302L16.2157 14.8458L16.8314 15.4467L17.667 14.9745C18.0628 15.2321 18.5026 15.4038 18.9424 15.4896L19.1623 16.434H20.0419L20.2618 15.4896C20.7455 15.4038 21.1853 15.2321 21.5372 14.9745L22.3728 15.4467L22.9885 14.8458L22.5047 14.0302C22.7686 13.6439 22.9445 13.2146 23.0325 12.7854L24 12.5708V11.7123L23.0325 11.4976ZM19.6021 14.2877C18.3707 14.2877 17.4031 13.3434 17.4031 12.1415C17.4031 10.9396 18.3707 9.99528 19.6021 9.99528C20.8335 9.99528 21.801 10.9396 21.801 12.1415C21.801 13.3434 20.8335 14.2877 19.6021 14.2877Z" fill="#FDFDFD"/>
<path d="M16.6266 4.58679C16.516 3.99321 16.2949 3.45358 15.9631 3.02189L16.5713 1.9966L15.7973 1.24113L14.7468 1.83472C14.2492 1.51094 13.6963 1.29509 13.1435 1.18717L12.867 0H11.7613L11.4848 1.18717C10.8766 1.29509 10.3238 1.51094 9.82618 1.83472L8.77571 1.18717L8.00167 1.94264L8.60984 2.96792C8.27812 3.45359 8.05696 3.99321 7.94639 4.53283L6.78534 4.8566V5.93585L8.00167 6.20566C8.11225 6.79925 8.3334 7.33887 8.66513 7.77057L8.05696 8.79585L8.83099 9.55132L9.88146 8.95774C10.3791 9.28151 10.9319 9.49736 11.4848 9.60528L11.7613 10.7925H12.867L13.1435 9.60528C13.7516 9.49736 14.3045 9.28151 14.7468 8.95774L15.7973 9.55132L16.5713 8.79585L15.9631 7.77057C16.2949 7.28491 16.516 6.74528 16.6266 6.20566L17.8429 5.93585V4.8566L16.6266 4.58679ZM12.3141 8.09434C10.7661 8.09434 9.54974 6.90717 9.54974 5.39623C9.54974 3.88528 10.7661 2.69811 12.3141 2.69811C13.8622 2.69811 15.0785 3.88528 15.0785 5.39623C15.0785 6.90717 13.8622 8.09434 12.3141 8.09434Z" fill="#FDFDFD"/>
</svg>
